{
	"asset":{
		"generator":"Khronos glTF Blender I/O v3.5.30",
		"version":"2.0"
	},
	"scene":0,
	"scenes":[
		{
			"name":"Scene",
			"nodes":[
				2
			]
		}
	],
	"nodes":[
		{
			"mesh":0,
			"name":"Base",
			"rotation":[
				0.70710688829422,
				0,
				0,
				0.7071066498756409
			],
			"scale":[
				0.01694067195057869,
				0.01694067195057869,
				0.01694067195057869
			]
		},
		{
			"mesh":1,
			"name":"Leg frame",
			"scale":[
				1.6940672397613525,
				1.6940672397613525,
				1.6940672397613525
			]
		},
		{
			"children":[
				0,
				1
			],
			"name":"Bean Bag Chair",
			"scale":[
				0.5902953743934631,
				0.5902953743934631,
				0.5902953743934631
			],
			"translation":[
				0,
				0,
				-0.0716668888926506
			]
		}
	],
	"meshes":[
		{
			"name":"bean-bag-chair-002.001",
			"primitives":[
				{
					"attributes":{
						"POSITION":0,
						"TEXCOORD_0":1,
						"NORMAL":2
					},
					"indices":3
				}
			]
		},
		{
			"name":"Cylinder.003",
			"primitives":[
				{
					"attributes":{
						"POSITION":4,
						"TEXCOORD_0":5,
						"NORMAL":6
					},
					"indices":7
				}
			]
		}
	],
	"accessors":[
		{
			"bufferView":0,
			"componentType":5126,
			"count":745,
			"max":[
				38.84834671020508,
				43.78864669799805,
				-13.355525970458984
			],
			"min":[
				-38.854671478271484,
				-45.94790267944336,
				-81.22689056396484
			],
			"type":"VEC3"
		},
		{
			"bufferView":1,
			"componentType":5126,
			"count":745,
			"type":"VEC2"
		},
		{
			"bufferView":2,
			"componentType":5126,
			"count":745,
			"type":"VEC3"
		},
		{
			"bufferView":3,
			"componentType":5123,
			"count":2004,
			"type":"SCALAR"
		},
		{
			"bufferView":4,
			"componentType":5126,
			"count":80,
			"max":[
				0.32074010372161865,
				0.1402047574520111,
				0.2949177026748657
			],
			"min":[
				-0.3207401633262634,
				0.003974004182964563,
				-0.2949178218841553
			],
			"type":"VEC3"
		},
		{
			"bufferView":5,
			"componentType":5126,
			"count":80,
			"type":"VEC2"
		},
		{
			"bufferView":6,
			"componentType":5126,
			"count":80,
			"type":"VEC3"
		},
		{
			"bufferView":7,
			"componentType":5123,
			"count":96,
			"type":"SCALAR"
		}
	],
	"bufferViews":[
		{
			"buffer":0,
			"byteLength":8940,
			"byteOffset":0,
			"target":34962
		},
		{
			"buffer":0,
			"byteLength":5960,
			"byteOffset":8940,
			"target":34962
		},
		{
			"buffer":0,
			"byteLength":8940,
			"byteOffset":14900,
			"target":34962
		},
		{
			"buffer":0,
			"byteLength":4008,
			"byteOffset":23840,
			"target":34963
		},
		{
			"buffer":0,
			"byteLength":960,
			"byteOffset":27848,
			"target":34962
		},
		{
			"buffer":0,
			"byteLength":640,
			"byteOffset":28808,
			"target":34962
		},
		{
			"buffer":0,
			"byteLength":960,
			"byteOffset":29448,
			"target":34962
		},
		{
			"buffer":0,
			"byteLength":192,
			"byteOffset":30408,
			"target":34963
		}
	],
	"buffers":[
		{
			"byteLength":30600,
			"uri":"data:application/octet-stream;base64,"
		}
	]
}
