{
	"asset":{
		"generator":"Khronos glTF Blender I/O v3.5.30",
		"version":"2.0"
	},
	"scene":0,
	"scenes":[
		{
			"name":"Scene",
			"nodes":[
				3,
				7
			]
		}
	],
	"nodes":[
		{
			"mesh":0,
			"name":"legs.001",
			"rotation":[
				0.45271918177604675,
				0.7382717728614807,
				0.26137757301330566,
				0.42624157667160034
			],
			"scale":[
				0.00491822836920619,
				0.00491822836920619,
				0.004918224643915892
			],
			"translation":[
				0.020268559455871582,
				0.9619020223617554,
				0.009564220905303955
			]
		},
		{
			"mesh":1,
			"name":"shade",
			"rotation":[
				0,
				0.9152618050575256,
				0,
				0.40285956859588623
			],
			"translation":[
				0.023869037628173828,
				1.3018498420715332,
				8.404254913330078e-06
			]
		},
		{
			"mesh":2,
			"name":"shadeframe",
			"rotation":[
				0,
				0.9152618050575256,
				0,
				0.40285956859588623
			],
			"translation":[
				0.023869037628173828,
				1.3021527528762817,
				8.404254913330078e-06
			]
		},
		{
			"children":[
				0,
				1,
				2
			],
			"name":"Luxury Lamp",
			"translation":[
				-1.9185019731521606,
				0,
				-0.722402811050415
			]
		},
		{
			"mesh":0,
			"name":"legs.002",
			"rotation":[
				0.45271918177604675,
				0.7382717728614807,
				0.26137757301330566,
				0.42624157667160034
			],
			"scale":[
				0.00491822836920619,
				0.00491822836920619,
				0.004918224643915892
			],
			"translation":[
				0.020268559455871582,
				0.9619020223617554,
				0.00956416130065918
			]
		},
		{
			"mesh":1,
			"name":"shade.001",
			"rotation":[
				0,
				0.9152618050575256,
				0,
				0.40285956859588623
			],
			"translation":[
				0.023869037628173828,
				1.3018498420715332,
				8.344650268554688e-06
			]
		},
		{
			"mesh":2,
			"name":"shadeframe.001",
			"rotation":[
				0,
				0.9152618050575256,
				0,
				0.40285956859588623
			],
			"translation":[
				0.023869037628173828,
				1.3021527528762817,
				8.344650268554688e-06
			]
		},
		{
			"children":[
				4,
				5,
				6
			],
			"name":"Luxury Lamp.001",
			"translation":[
				1.29678213596344,
				0,
				2.486053228378296
			]
		}
	],
	"meshes":[
		{
			"name":"Circle.007",
			"primitives":[
				{
					"attributes":{
						"POSITION":0,
						"TEXCOORD_0":1,
						"NORMAL":2
					},
					"indices":3
				}
			]
		},
		{
			"name":"Circle.003",
			"primitives":[
				{
					"attributes":{
						"POSITION":4,
						"TEXCOORD_0":5,
						"NORMAL":6
					},
					"indices":7
				}
			]
		},
		{
			"name":"Circle.014",
			"primitives":[
				{
					"attributes":{
						"POSITION":8,
						"TEXCOORD_0":9,
						"NORMAL":10
					},
					"indices":11
				}
			]
		}
	],
	"accessors":[
		{
			"bufferView":0,
			"componentType":5126,
			"count":288,
			"max":[
				108.75392150878906,
				86.88992309570312,
				34.274864196777344
			],
			"min":[
				-191.38568115234375,
				-113.49058532714844,
				-42.72272872924805
			],
			"type":"VEC3"
		},
		{
			"bufferView":1,
			"componentType":5126,
			"count":288,
			"type":"VEC2"
		},
		{
			"bufferView":2,
			"componentType":5126,
			"count":288,
			"type":"VEC3"
		},
		{
			"bufferView":3,
			"componentType":5123,
			"count":408,
			"type":"SCALAR"
		},
		{
			"bufferView":4,
			"componentType":5126,
			"count":526,
			"max":[
				0.34806889295578003,
				0.1904361993074417,
				0.30192455649375916
			],
			"min":[
				-0.34806889295578003,
				-0.19040122628211975,
				-0.30192455649375916
			],
			"type":"VEC3"
		},
		{
			"bufferView":5,
			"componentType":5126,
			"count":526,
			"type":"VEC2"
		},
		{
			"bufferView":6,
			"componentType":5126,
			"count":526,
			"type":"VEC3"
		},
		{
			"bufferView":7,
			"componentType":5123,
			"count":2016,
			"type":"SCALAR"
		},
		{
			"bufferView":8,
			"componentType":5126,
			"count":448,
			"max":[
				0.3426946997642517,
				0.18798331916332245,
				0.2967863082885742
			],
			"min":[
				-0.34269699454307556,
				-0.18773680925369263,
				-0.29678741097450256
			],
			"type":"VEC3"
		},
		{
			"bufferView":9,
			"componentType":5126,
			"count":448,
			"type":"VEC2"
		},
		{
			"bufferView":10,
			"componentType":5126,
			"count":448,
			"type":"VEC3"
		},
		{
			"bufferView":11,
			"componentType":5123,
			"count":858,
			"type":"SCALAR"
		}
	],
	"bufferViews":[
		{
			"buffer":0,
			"byteLength":3456,
			"byteOffset":0,
			"target":34962
		},
		{
			"buffer":0,
			"byteLength":2304,
			"byteOffset":3456,
			"target":34962
		},
		{
			"buffer":0,
			"byteLength":3456,
			"byteOffset":5760,
			"target":34962
		},
		{
			"buffer":0,
			"byteLength":816,
			"byteOffset":9216,
			"target":34963
		},
		{
			"buffer":0,
			"byteLength":6312,
			"byteOffset":10032,
			"target":34962
		},
		{
			"buffer":0,
			"byteLength":4208,
			"byteOffset":16344,
			"target":34962
		},
		{
			"buffer":0,
			"byteLength":6312,
			"byteOffset":20552,
			"target":34962
		},
		{
			"buffer":0,
			"byteLength":4032,
			"byteOffset":26864,
			"target":34963
		},
		{
			"buffer":0,
			"byteLength":5376,
			"byteOffset":30896,
			"target":34962
		},
		{
			"buffer":0,
			"byteLength":3584,
			"byteOffset":36272,
			"target":34962
		},
		{
			"buffer":0,
			"byteLength":5376,
			"byteOffset":39856,
			"target":34962
		},
		{
			"buffer":0,
			"byteLength":1716,
			"byteOffset":45232,
			"target":34963
		}
	],
	"buffers":[
		{
			"byteLength":46948,
			"uri":"data:application/octet-stream;base64,"
		}
	]
}
