{
	"asset":{
		"generator":"Khronos glTF Blender I/O v3.5.30",
		"version":"2.0"
	},
	"scene":0,
	"scenes":[
		{
			"name":"Scene",
			"nodes":[
				0
			]
		}
	],
	"nodes":[
		{
			"mesh":0,
			"name":"Plane.001",
			"rotation":[
				0,
				0.9993751049041748,
				0,
				0.03534744307398796
			],
			"scale":[
				1.2806410789489746,
				1.2806410789489746,
				1.2806410789489746
			],
			"translation":[
				0.029026329517364502,
				0.6967329978942871,
				0.650309681892395
			]
		}
	],
	"meshes":[
		{
			"name":"Plane.001",
			"primitives":[
				{
					"attributes":{
						"POSITION":0,
						"TEXCOORD_0":1,
						"NORMAL":2
					},
					"indices":3
				}
			]
		}
	],
	"accessors":[
		{
			"bufferView":0,
			"componentType":5126,
			"count":5356,
			"max":[
				0.1556527316570282,
				0.21999140083789825,
				0.11098849773406982
			],
			"min":[
				-0.15934741497039795,
				-0.0015642230864614248,
				-0.14176684617996216
			],
			"type":"VEC3"
		},
		{
			"bufferView":1,
			"componentType":5126,
			"count":5356,
			"type":"VEC2"
		},
		{
			"bufferView":2,
			"componentType":5126,
			"count":5356,
			"type":"VEC3"
		},
		{
			"bufferView":3,
			"componentType":5123,
			"count":17058,
			"type":"SCALAR"
		}
	],
	"bufferViews":[
		{
			"buffer":0,
			"byteLength":64272,
			"byteOffset":0,
			"target":34962
		},
		{
			"buffer":0,
			"byteLength":42848,
			"byteOffset":64272,
			"target":34962
		},
		{
			"buffer":0,
			"byteLength":64272,
			"byteOffset":107120,
			"target":34962
		},
		{
			"buffer":0,
			"byteLength":34116,
			"byteOffset":171392,
			"target":34963
		}
	],
	"buffers":[
		{
			"byteLength":205508,
			"uri":"data:application/octet-stream;base64,"
		}
	]
}
